<?xml version="1.0" encoding="UTF-8"?>
<svg id="Capa_1" data-name="Capa 1" xmlns="http://www.w3.org/2000/svg" viewBox="0 0 225.7 225.7">
  <defs>
    <style>
      .cls-1 {
        fill: #fff;
      }
    </style>
  </defs>
  <circle class="cls-1" cx="112.85" cy="112.85" r="112.85"/>
  <path d="m150.1,44.01c1.8,2,8.7,20.6,8.7,23.3,0,3.1-2.6,4.7-8.7,5.5-11.1,1.3-36.9,6.6-54.3,11.2-20.6,5.4-24.2,6-25.7,4.1-1.9-2.3-7.5-23.8-6.9-26.4.4-1.3,1.9-3,3.4-3.8,7.3-3.7,65-15.4,76.8-15.5,3.6-.1,5.5.4,6.7,1.6Zm22.6,42.6c1.6,2,8.1,20.4,8.1,23.1,0,1.3-.6,2.8-1.2,3.4-.7.5-8.7,2.4-17.8,4.2-36.4,6.9-67.2,16.1-97.5,29-9.8,4.2-11.2,4.5-13.3,3.1-1.5-.9-6.2-20.5-6.2-25.5,0-4.7,1.6-6.1,10.6-10,25.6-10.8,59-20.3,92.4-26.1,15.7-2.7,23.3-3.1,24.9-1.2Zm.9,46.5c2.3,3,8.1,22.4,7.2,24.6-.5,1.6-2.5,2.6-7.6,3.9-18,4.7-37.5,10.4-53.7,15.8-9.8,3.2-18.9,5.9-20.1,5.9-3.6,0-5.1-2.6-8.6-14.7-4.5-15.4-4.8-14.9,12.7-20.7,24-7.8,63.3-17.7,66.8-16.9,1.1.3,2.6,1.2,3.3,2.1Z"/>
</svg>